<?xml version="1.0" standalone="no"?><svg xmlns="http://www.w3.org/2000/svg" viewBox="0 0 1440 320"><path fill="#f3f4f5" fill-opacity="1" d="M0,64L13.3,64C26.7,64,53,64,80,90.7C106.7,117,133,171,160,165.3C186.7,160,213,96,240,64C266.7,32,293,32,320,32C346.7,32,373,32,400,42.7C426.7,53,453,75,480,117.3C506.7,160,533,224,560,208C586.7,192,613,96,640,53.3C666.7,11,693,21,720,48C746.7,75,773,117,800,138.7C826.7,160,853,160,880,144C906.7,128,933,96,960,117.3C986.7,139,1013,213,1040,229.3C1066.7,245,1093,203,1120,202.7C1146.7,203,1173,245,1200,261.3C1226.7,277,1253,267,1280,245.3C1306.7,224,1333,192,1360,176C1386.7,160,1413,160,1427,160L1440,160L1440,320L1426.7,320C1413.3,320,1387,320,1360,320C1333.3,320,1307,320,1280,320C1253.3,320,1227,320,1200,320C1173.3,320,1147,320,1120,320C1093.3,320,1067,320,1040,320C1013.3,320,987,320,960,320C933.3,320,907,320,880,320C853.3,320,827,320,800,320C773.3,320,747,320,720,320C693.3,320,667,320,640,320C613.3,320,587,320,560,320C533.3,320,507,320,480,320C453.3,320,427,320,400,320C373.3,320,347,320,320,320C293.3,320,267,320,240,320C213.3,320,187,320,160,320C133.3,320,107,320,80,320C53.3,320,27,320,13,320L0,320Z"></path></svg>